# xmcd
#
# Track frame offsets:
#	150
#	18970
#	42045
#	66295
#	86267
#	109667
#	136320
#	156242
#	174987
#	194657
#	218342
#	236530
#
# Disc length: 3485 seconds
#
# Revision: 0
# Processed by: cddbd v1.5.1PL2 Copyright (c) Steve Scherf et al.
# Submitted via: dBpowerAMP V4.0
#
DISCID=940d9b0c
DTITLE=JJ Malone - Highway 99
DYEAR=1900
DGENRE=Blues
TTITLE0=Black nights
TTITLE1=Daddy rolling stones
TTITLE2=Highway 99
TTITLE3=Biscuit bakin' woman
TTITLE4=Sail on
TTITLE5=Killing floor
TTITLE6=Old fashionned blues
TTITLE7=They call it the craw
TTITLE8=Long way from San Antone
TTITLE9=Mary anne
TTITLE10=Automobile blues
TTITLE11=Sittin' here thinkin'
EXTD=
EXTT0=
EXTT1=
EXTT2=
EXTT3=
EXTT4=
EXTT5=
EXTT6=
EXTT7=
EXTT8=
EXTT9=
EXTT10=
EXTT11=
PLAYORDER=
